# xmcd
#
# Track frame offsets:
#	150
#	7822
#	20645
#	33085
#	44400
#	58190
#	68620
#	80260
#	91912
#	101257
#	113360
#	122380
#	133805
#	144875
#	159427
#	177932
#	190967
#	203945
#	218055
#	238667
#	259090
#	271912
#	286570
#
# Disc length: 4012 seconds
#
# Revision: 5
# Processed by: cddbd v1.5.2PL0 Copyright (c) Steve Scherf et al.
# Submitted via: audiograbber 1.83.01
#
DISCID=290faa17
DTITLE=Glen Campbell - The Essential Glen Campbell - Volume 1
DYEAR=1900
DGENRE=Oldies
TTITLE0=Kentucky Means Paradise
TTITLE1=I'll Hold You In My Heart
TTITLE2=Twelve Blues  (Unreleased)
TTITLE3=Burning Bridges
TTITLE4=Mary In The Morning
TTITLE5=I Walk The Line
TTITLE6=Dreams Of The Everyday Housewife
TTITLE7=(Sittin' On) The Dock Of The Bay
TTITLE8=Glen Campbell and Bobbie Gentry_Let It Be Me  
TTITLE9=Galveston
TTITLE10=Banjo Garden
TTITLE11=True Grit
TTITLE12=It's Only Make Believe
TTITLE13=I Say A Little Prayer
TTITLE14=The Last Time I Saw Her
TTITLE15=Shenandoah
TTITLE16=I Knew Jesus (Before He Was A Star)
TTITLE17=Country Boy (You've Got Your Feet In L.A.)
TTITLE18=My Way  (Live) (Unreleased)
TTITLE19=Bloodline
TTITLE20=Sunflower
TTITLE21=Classical Gas  (Live)
TTITLE22=Glen Campbell With The Nelson Riddle Orchestra_Blue Sky Shining  (Unre
TTITLE22=leased)
EXTD=
EXTT0=
EXTT1=
EXTT2=
EXTT3=
EXTT4=
EXTT5=
EXTT6=
EXTT7=
EXTT8=
EXTT9=
EXTT10=
EXTT11=
EXTT12=
EXTT13=
EXTT14=
EXTT15=
EXTT16=
EXTT17=
EXTT18=
EXTT19=
EXTT20=
EXTT21=
EXTT22=
PLAYORDER=
